<?xml version="1.0" encoding="UTF-8" standalone="no"?>
<svg
   xmlns:dc="http://purl.org/dc/elements/1.1/"
   xmlns:cc="http://creativecommons.org/ns#"
   xmlns:rdf="http://www.w3.org/1999/02/22-rdf-syntax-ns#"
   xmlns:svg="http://www.w3.org/2000/svg"
   xmlns="http://www.w3.org/2000/svg"
   xmlns:sodipodi="http://sodipodi.sourceforge.net/DTD/sodipodi-0.dtd"
   xmlns:inkscape="http://www.inkscape.org/namespaces/inkscape"
   width="2400"
   height="540"
   viewBox="0 0 255.36 57.446808"
   id="svg2"
   version="1.1"
   inkscape:version="0.48.4 r9939"
   sodipodi:docname="logo.png">
  <metadata
     id="metadata14">
    <rdf:RDF>
      <cc:Work
         rdf:about="">
        <dc:format>image/svg+xml</dc:format>
        <dc:type
           rdf:resource="http://purl.org/dc/dcmitype/StillImage" />
        <dc:title></dc:title>
      </cc:Work>
    </rdf:RDF>
  </metadata>
  <defs
     id="defs12" />
  <sodipodi:namedview
     pagecolor="#ffffff"
     bordercolor="#666666"
     borderopacity="1"
     objecttolerance="10"
     gridtolerance="10"
     guidetolerance="10"
     inkscape:pageopacity="0"
     inkscape:pageshadow="2"
     inkscape:window-width="1440"
     inkscape:window-height="838"
     id="namedview10"
     showgrid="false"
     inkscape:zoom="0.3048"
     inkscape:cx="1445.8169"
     inkscape:cy="463.30669"
     inkscape:window-x="-8"
     inkscape:window-y="-8"
     inkscape:window-maximized="1"
     inkscape:current-layer="svg2" />
  <path
     d="m 0,-42.56 h 266 v 100 H 0 z"
     id="path4"
     inkscape:connector-curvature="0"
     style="fill:none" />
  <g
     id="g3793"
     transform="translate(18.850394,-3.4628866)">
    <a
       id="a3781">
      <g
         id="g6"
         transform="translate(-24.435695,-20.5958)"
         style="fill:#3b5998">
        <path
           d="m 140.021,49.597 c -1.784,0 -3.07,0.585 -4.374,1.181 v 13.486 c 1.249,0.119 1.965,0.119 3.15,0.119 4.282,0 4.869,-1.961 4.869,-4.699 v -6.441 c 0,-2.022 -0.671,-3.646 -3.645,-3.646 z m -28.438,-0.736 c -2.971,0 -3.649,1.631 -3.649,3.651 v 1.135 h 7.294 v -1.135 c 0,-2.02 -0.678,-3.651 -3.645,-3.651 z m -55.09,14.037 c 0,1.598 0.754,2.428 2.418,2.428 1.785,0 2.842,-0.582 4.145,-1.18 v -3.199 h -3.903 c -1.848,0 -2.66,0.344 -2.66,1.951 z M 167.684,49.597 c -2.976,0 -4.007,1.624 -4.007,3.646 v 7.379 c 0,2.027 1.031,3.656 4.007,3.656 2.968,0 4.007,-1.629 4.007,-3.656 v -7.379 c -0.001,-2.022 -1.04,-3.646 -4.007,-3.646 z M 41.909,71.172 H 33.161 V 49.998 H 28.79 v -7.296 h 4.372 V 38.32 c 0,-5.953 2.467,-9.492 9.479,-9.492 h 5.838 v 7.298 H 44.83 c -2.73,0 -2.91,1.02 -2.91,2.923 l -0.011,3.652 h 6.61 l -0.773,7.296 h -5.837 v 21.175 z m 29.897,0.055 H 64.515 L 64.2,69.383 c -3.329,1.844 -6.3,2.143 -8.26,2.143 -5.347,0 -8.193,-3.572 -8.193,-8.512 0,-5.828 3.321,-7.908 9.262,-7.908 h 6.047 v -1.26 c 0,-2.975 -0.341,-3.848 -4.916,-3.848 h -7.48 l 0.731,-7.296 h 8.176 c 10.038,0 12.239,3.171 12.239,11.203 V 71.227 z M 96.599,50.533 c -4.537,-0.778 -5.84,-0.949 -8.023,-0.949 -3.921,0 -5.106,0.865 -5.106,4.195 v 6.299 c 0,3.33 1.185,4.199 5.106,4.199 2.183,0 3.486,-0.174 8.023,-0.955 v 7.117 c -3.974,0.891 -6.563,1.125 -8.751,1.125 -9.392,0 -13.125,-4.939 -13.125,-12.074 v -5.111 c 0,-7.141 3.733,-12.089 13.125,-12.089 2.188,0 4.777,0.235 8.751,1.13 v 7.113 z m 27.376,8.957 h -16.042 v 0.588 c 0,3.33 1.186,4.199 5.106,4.199 3.524,0 5.675,-0.174 10.204,-0.955 v 7.117 c -4.368,0.891 -6.644,1.125 -10.929,1.125 -9.393,0 -13.128,-4.939 -13.128,-12.074 v -5.844 c 0,-6.243 2.771,-11.356 12.396,-11.356 9.625,0 12.393,5.054 12.393,11.356 v 5.844 z m 28.437,0.135 c 0,6.896 -1.971,11.926 -13.911,11.926 -4.312,0 -6.841,-0.379 -11.6,-1.111 V 31.02 l 8.745,-1.459 V 43.35 c 1.89,-0.702 4.336,-1.059 6.562,-1.059 8.746,0 10.203,3.921 10.203,10.222 v 7.112 z m 28.033,0.15 c 0,5.949 -2.456,11.719 -12.732,11.719 -10.281,0 -12.783,-5.77 -12.783,-11.719 v -5.744 c 0,-5.952 2.502,-11.723 12.783,-11.723 10.276,0 12.732,5.771 12.732,11.723 v 5.744 z m 28.014,0 c 0,5.949 -2.459,11.719 -12.733,11.719 -10.281,0 -12.783,-5.77 -12.783,-11.719 v -5.744 c 0,-5.952 2.502,-11.723 12.783,-11.723 10.274,0 12.733,5.771 12.733,11.723 v 5.744 z m 28.749,11.397 h -9.479 l -8.017,-13.383 v 13.383 h -8.748 V 31.019 l 8.748,-1.459 v 25.849 l 8.017,-12.707 h 9.479 l -8.752,13.867 8.752,14.603 z M 195.696,49.597 c -2.971,0 -4.002,1.624 -4.002,3.646 v 7.379 c 0,2.027 1.031,3.656 4.002,3.656 2.967,0 4.017,-1.629 4.017,-3.656 v -7.379 c 0,-2.022 -1.05,-3.646 -4.017,-3.646 z m 46.505,16.581 c 1.473,0 2.646,1.201 2.646,2.701 0,1.523 -1.174,2.711 -2.657,2.711 -1.476,0 -2.673,-1.188 -2.673,-2.711 0,-1.5 1.197,-2.701 2.673,-2.701 h 0.011 z m -0.011,0.42 c -1.187,0 -2.158,1.021 -2.158,2.281 0,1.283 0.972,2.291 2.169,2.291 1.198,0.012 2.155,-1.008 2.155,-2.279 0,-1.271 -0.957,-2.293 -2.155,-2.293 h -0.011 z m -0.503,3.853 h -0.48 v -3.014 c 0.252,-0.035 0.492,-0.07 0.852,-0.07 0.456,0 0.754,0.096 0.937,0.227 0.177,0.133 0.272,0.336 0.272,0.623 0,0.398 -0.262,0.637 -0.585,0.734 v 0.023 c 0.263,0.049 0.442,0.287 0.503,0.73 0.07,0.469 0.143,0.648 0.19,0.746 h -0.503 c -0.071,-0.098 -0.144,-0.373 -0.204,-0.77 -0.07,-0.383 -0.264,-0.527 -0.648,-0.527 h -0.333 v 1.298 z m 0,-1.668 h 0.348 c 0.394,0 0.729,-0.145 0.729,-0.518 0,-0.264 -0.19,-0.527 -0.729,-0.527 -0.157,0 -0.266,0.012 -0.348,0.023 v 1.022 z"
           id="path8"
           inkscape:connector-curvature="0" />
      </g>
    </a>
    <rect
       transform="matrix(0.1064,0,0,0.1064,0,-0.008)"
       y="388.81891"
       x="2007.874"
       height="144.35695"
       width="223.09711"
       id="rect3011"
       style="fill:#ffffff;fill-rule:evenodd;stroke:none" />
  </g>
  <text
     xml:space="preserve"
     style="font-size:4.25600004px;font-style:normal;font-weight:normal;line-height:125%;letter-spacing:0px;word-spacing:0px;fill:#3b5998;fill-opacity:1;stroke:none;font-family:Sans"
     x="2.8045506"
     y="-239.09572"
     id="text3799"
     sodipodi:linespacing="125%"
     transform="matrix(0,1,-1,0,0,0)"><tspan
       sodipodi:role="line"
       id="tspan3801"
       x="2.8045506"
       y="-239.09572"
       style="font-size:21.28000069px;font-weight:bold;fill:#3b5998;fill-opacity:1;-inkscape-font-specification:Sans Bold">CMS</tspan></text>
  <text
     xml:space="preserve"
     style="font-size:4.25600004px;font-style:normal;font-weight:normal;line-height:125%;letter-spacing:0px;word-spacing:0px;fill:#3b5998;fill-opacity:1;stroke:none;font-family:Sans"
     x="-50.023624"
     y="17.385414"
     id="text3799-1"
     sodipodi:linespacing="125%"
     transform="matrix(0,-1,1,0,0,0)"><tspan
       sodipodi:role="line"
       id="tspan3801-7"
       x="-50.023624"
       y="17.385414"
       style="font-size:21.28000069px;font-weight:bold;fill:#3b5998;fill-opacity:1;-inkscape-font-specification:Sans Bold">CMS</tspan></text>
  <text
     xml:space="preserve"
     style="font-size:6.80959988px;font-style:normal;font-weight:normal;line-height:125%;letter-spacing:0px;word-spacing:0px;fill:#0066ff;fill-opacity:1;stroke:none;font-family:Sans"
     x="64.230972"
     y="53.608109"
     id="text3824"
     sodipodi:linespacing="125%"><tspan
       sodipodi:role="line"
       id="tspan3826"
       x="64.230972"
       y="53.608109">Wojciech Żurek &amp;&amp; Tomasz Rzeźniczak</tspan></text>
</svg>
